# xmcd
#
# Track frame offsets:
#	150
#	20812
#	43557
#	65097
#	85837
#	105430
#	134610
#	160817
#	180000
#	200340
#	217752
#	234815
#
# Disc length: 3401 seconds
#
# Revision: 1
# Processed by: cddbd v1.5.1PL0 Copyright (c) Steve Scherf et al.
# Submitted via: CDex 1.50Beta5
#
DISCID=930d470c
DTITLE=Cyber Nation Network - ビーストウォーズ〜超生命体トランスフォーマー〜TV+映画 Best Songs Special
DYEAR=1998
DGENRE=
TTITLE0=Cyber Nation Network/SUPER VOYAGER
TTITLE1=Cyber Nation Network/GET MY FUTURE
TTITLE2=米屋純/夢のいる場所
TTITLE3=下町兄弟/WAR WAR! STOP IT
TTITLE4=Mickey/FOR THE DREAM
TTITLE5=Cyber Nation Network/SUPER VOYAGER
TTITLE6=Cyber Nation Network/GET MY FUTURE
TTITLE7=COA/SPACE DREAMER
TTITLE8=COA/MY SHOOTING STAR
TTITLE9=勝誠二/始まりの唄
TTITLE10=勝誠二/果てしないこの宇宙へ
TTITLE11=勝誠二/Hello!タフネス
EXTD=
EXTT0=
EXTT1=
EXTT2=
EXTT3=
EXTT4=
EXTT5=
EXTT6=
EXTT7=
EXTT8=
EXTT9=
EXTT10=
EXTT11=
PLAYORDER=
